HIERARCHY
ROOT Hips
{
	OFFSET 0.000000 0.000000 0.000000
	CHANNELS 6 Xposition Yposition Zposition Xrotation Yrotation Zrotation
	JOINT Spine1
	{
		OFFSET 0.000000 2.082711 0.000002
		CHANNELS 6 Xposition Yposition Zposition Xrotation Yrotation Zrotation
		JOINT Neck
		{
			OFFSET 0.000000 1.660410 0.000002
			CHANNELS 6 Xposition Yposition Zposition Xrotation Yrotation Zrotation
			JOINT Head
			{
				OFFSET 0.000000 1.055760 0.136227
				CHANNELS 6 Xposition Yposition Zposition Xrotation Yrotation Zrotation
				End Site
				{
					OFFSET 0.000000 1.362267 0.000000
				}
			}
		}
		JOINT LeftShoulder
		{
			OFFSET 0.274325 1.340693 -0.036009
			CHANNELS 6 Xposition Yposition Zposition Xrotation Yrotation Zrotation
			JOINT LeftArm
			{
				OFFSET 0.978870 0.000000 0.000000
				CHANNELS 6 Xposition Yposition Zposition Xrotation Yrotation Zrotation
				JOINT LeftForeArm
				{
					OFFSET 1.919408 0.000000 0.000000
					CHANNELS 6 Xposition Yposition Zposition Xrotation Yrotation Zrotation
					JOINT LeftHand
					{
						OFFSET 1.783837 0.000000 0.000000
						CHANNELS 6 Xposition Yposition Zposition Xrotation Yrotation Zrotation
						End Site
						{
							OFFSET 1.021700 0.000000 0.000000
						}
					}
				}
			}
		}
		JOINT RightShoulder
		{
			OFFSET -0.270541 1.340693 -0.036009
			CHANNELS 6 Xposition Yposition Zposition Xrotation Yrotation Zrotation
			JOINT RightArm
			{
				OFFSET -0.978870 0.000000 0.000000
				CHANNELS 6 Xposition Yposition Zposition Xrotation Yrotation Zrotation
				JOINT RightForeArm
				{
					OFFSET -1.919407 0.000000 0.000000
					CHANNELS 6 Xposition Yposition Zposition Xrotation Yrotation Zrotation
					JOINT RightHand
					{
						OFFSET -1.783838 0.000000 0.000000
						CHANNELS 6 Xposition Yposition Zposition Xrotation Yrotation Zrotation
						End Site
						{
							OFFSET -1.021700 0.000000 0.000000
						}
					}
				}
			}
		}
	}
	JOINT LeftUpLeg
	{
		OFFSET 0.681135 0.000000 0.000000
		CHANNELS 6 Xposition Yposition Zposition Xrotation Yrotation Zrotation
		JOINT LeftLeg
		{
			OFFSET 0.000000 -2.864618 -0.000002
			CHANNELS 6 Xposition Yposition Zposition Xrotation Yrotation Zrotation
			JOINT LeftFoot
			{
				OFFSET 0.000000 -3.003225 -0.000002
				CHANNELS 6 Xposition Yposition Zposition Xrotation Yrotation Zrotation
				JOINT LeftToeBase
				{
					OFFSET 0.000000 -0.442738 1.021702
					CHANNELS 6 Xposition Yposition Zposition Xrotation Yrotation Zrotation
					End Site
					{
						OFFSET 0.000000 0.000000 0.272454
					}
				}
			}
		}
	}
	JOINT RightUpLeg
	{
		OFFSET -0.681135 0.000000 0.000000
		CHANNELS 6 Xposition Yposition Zposition Xrotation Yrotation Zrotation
		JOINT RightLeg
		{
			OFFSET 0.000000 -2.864618 -0.000002
			CHANNELS 6 Xposition Yposition Zposition Xrotation Yrotation Zrotation
			JOINT RightFoot
			{
				OFFSET 0.000000 -3.003225 -0.000002
				CHANNELS 6 Xposition Yposition Zposition Xrotation Yrotation Zrotation
				JOINT RightToeBase
				{
					OFFSET 0.000000 -0.442738 1.021702
					CHANNELS 6 Xposition Yposition Zposition Xrotation Yrotation Zrotation
					End Site
					{
						OFFSET 0.000000 0.000000 0.272454
					}
				}
			}
		}
	}
}
MOTION
Frames: 10
Frame Time: 0.016667
0.235519 5.591425 -0.323212 11.654261 2.273444 1.015826 -0.000000 2.082711 0.000002 -5.135599 -1.255481 4.276083 0.000000 1.660411 0.000001 5.725222 2.553924 2.198591 0.000000 1.055760 0.136227 9.974060 2.983658 -4.073305 0.274325 1.340694 -0.036009 -8.889863 0.091771 21.681969 0.978869 -0.000002 -0.000001 -10.054058 -8.226882 -9.877625 1.919408 0.000001 -0.000001 -9.688708 -1.930547 2.299311 1.783836 -0.000001 0.000000 -9.487198 3.864001 -7.111125 -0.270541 1.340693 -0.036009 -4.706680 -6.142247 -18.794048 -0.978871 -0.000002 -0.000000 23.378269 19.346579 -6.300733 -1.919409 0.000001 -0.000001 61.167179 48.471725 -100.822731 -1.783838 0.000001 0.000001 5.466225 5.579690 -28.662035 0.681135 -0.000000 0.000000 -36.874637 15.441617 25.419720 -0.000000 -2.864619 -0.000002 33.494022 5.728827 -10.151996 -0.000001 -3.003227 -0.000002 0.270048 15.106439 -8.323934 -0.000000 -0.442738 1.021702 0.000003 -0.000003 0.000000 -0.681135 -0.000000 0.000000 -29.529708 4.914316 -27.691574 0.000002 -2.864618 -0.000001 41.185378 -11.851282 30.380726 0.000001 -3.003227 -0.000001 -15.783758 -31.505197 -10.820396 0.000000 -0.442738 1.021702 0.000004 0.000003 -0.000002 
0.240323 5.586974 -0.321653 11.577012 2.215097 1.042227 0.000000 2.082710 0.000002 -5.053606 -1.198246 4.322590 -0.000000 1.660410 0.000001 5.755147 2.547186 2.138281 -0.000000 1.055759 0.136228 10.021281 2.970309 -4.091891 0.274325 1.340691 -0.036009 -8.887635 0.114052 21.657096 0.978872 -0.000001 -0.000000 -10.052057 -8.206517 -9.922338 1.919407 -0.000001 -0.000000 -9.721583 -1.916546 2.306471 1.783837 -0.000000 -0.000000 -9.516953 3.889740 -7.150972 -0.270541 1.340694 -0.036009 -4.672051 -6.145855 -18.779064 -0.978869 -0.000002 -0.000000 23.302889 19.356671 -6.159854 -1.919409 0.000000 -0.000001 61.595199 48.448441 -101.336197 -1.783838 0.000002 -0.000001 5.468440 5.563208 -28.517428 0.681135 -0.000000 0.000000 -36.876898 15.419946 25.579294 0.000001 -2.864616 -0.000001 33.809464 5.680276 -10.413033 0.000000 -3.003226 -0.000002 -0.094221 15.154279 -8.377802 0.000000 -0.442738 1.021702 0.000001 0.000009 0.000002 -0.681135 0.000000 -0.000000 -29.332326 4.831427 -27.999146 0.000000 -2.864617 -0.000001 41.275263 -12.117827 30.787706 0.000001 -3.003227 -0.000002 -15.686923 -31.569804 -10.345180 -0.000000 -0.442738 1.021701 0.000001 -0.000009 0.000000 
0.245366 5.582249 -0.320233 11.522153 2.136227 1.048012 -0.000000 2.082710 0.000002 -4.996645 -1.124428 4.392904 -0.000000 1.660408 0.000002 5.802283 2.541996 2.066839 0.000000 1.055760 0.136228 10.026007 2.957257 -4.070017 0.274324 1.340690 -0.036009 -8.902410 0.100196 21.660505 0.978870 -0.000001 -0.000000 -10.022398 -8.163983 -9.987752 1.919408 0.000001 -0.000000 -9.767527 -1.887412 2.280619 1.783836 0.000002 -0.000000 -9.560752 3.922029 -7.125268 -0.270541 1.340689 -0.036008 -4.668720 -6.120478 -18.746178 -0.978870 -0.000001 -0.000000 23.184857 19.349883 -6.010519 -1.919408 -0.000001 -0.000001 62.027666 48.339260 -101.789968 -1.783839 0.000001 0.000001 5.616488 5.508569 -28.471872 0.681135 -0.000000 -0.000000 -36.943329 15.438587 25.748493 -0.000002 -2.864617 -0.000002 34.162677 5.744742 -10.605628 -0.000001 -3.003225 -0.000002 -0.442562 15.037715 -8.433842 -0.000000 -0.442737 1.021703 -0.000004 -0.000009 0.000001 -0.681135 0.000000 -0.000000 -29.177984 4.747881 -28.278288 0.000001 -2.864616 -0.000001 41.360535 -12.356062 31.172276 0.000001 -3.003227 -0.000002 -15.457656 -31.600635 -9.949911 -0.000000 -0.442737 1.021702 -0.000002 -0.000010 -0.000003 
0.249755 5.577889 -0.317981 11.471277 2.018507 1.067198 0.000000 2.082709 0.000002 -4.946922 -1.015861 4.441964 -0.000000 1.660411 0.000002 5.835790 2.524224 2.051387 -0.000000 1.055761 0.136228 10.065519 2.937639 -4.119060 0.274325 1.340694 -0.036009 -8.915349 0.114352 21.656756 0.978871 0.000002 -0.000000 -10.123287 -8.153374 -10.043853 1.919408 0.000001 -0.000000 -9.719397 -1.803630 2.262910 1.783835 0.000001 0.000000 -9.510949 3.880134 -7.194131 -0.270540 1.340693 -0.036009 -4.629459 -6.155519 -18.706949 -0.978869 -0.000001 -0.000000 23.037868 19.427642 -5.880445 -1.919409 0.000002 0.000000 62.381101 48.206102 -102.174910 -1.783838 0.000001 -0.000000 5.764782 5.425883 -28.436506 0.681135 -0.000000 -0.000000 -36.874282 15.274559 25.906407 -0.000000 -2.864617 -0.000001 34.459018 5.684426 -10.946672 -0.000001 -3.003225 -0.000002 -0.792417 15.182317 -8.318641 -0.000000 -0.442738 1.021700 0.000001 -0.000001 -0.000001 -0.681135 -0.000001 0.000000 -29.002486 4.755455 -28.522897 -0.000002 -2.864616 -0.000001 41.378823 -12.522742 31.507348 0.000001 -3.003226 -0.000002 -15.194844 -31.632023 -9.344851 -0.000000 -0.442738 1.021703 -0.000001 -0.000005 0.000002 
0.254059 5.573362 -0.316095 11.428580 1.884388 1.065009 -0.000000 2.082709 0.000001 -4.898050 -0.915563 4.526592 0.000000 1.660413 0.000002 5.878974 2.522787 2.025129 0.000000 1.055760 0.136228 10.074825 2.934919 -4.169028 0.274325 1.340693 -0.036009 -8.926400 0.106425 21.636871 0.978870 -0.000001 -0.000000 -10.183636 -8.087955 -10.086698 1.919407 0.000000 -0.000000 -9.710901 -1.774535 2.234114 1.783837 0.000002 -0.000002 -9.500597 3.915719 -7.153074 -0.270541 1.340694 -0.036009 -4.601182 -6.160130 -18.664281 -0.978870 -0.000005 -0.000000 22.938658 19.489740 -5.796668 -1.919408 0.000000 -0.000001 62.728198 48.186650 -102.555181 -1.783837 -0.000000 -0.000001 5.826635 5.503900 -28.505682 0.681135 -0.000000 0.000000 -36.870116 15.213770 26.092419 -0.000001 -2.864617 -0.000002 34.729326 5.525823 -11.201630 -0.000001 -3.003226 -0.000002 -1.104811 15.328066 -8.235957 -0.000000 -0.442738 1.021702 -0.000001 -0.000008 -0.000003 -0.681135 0.000001 -0.000000 -28.857611 4.742280 -28.693239 0.000000 -2.864616 -0.000001 41.351799 -12.684136 31.703658 0.000001 -3.003227 -0.000002 -14.708315 -31.624148 -8.447468 0.000000 -0.442738 1.021702 -0.000005 -0.000000 0.000000 
0.258224 5.569275 -0.314537 11.414587 1.745944 1.058820 -0.000000 2.082711 0.000002 -4.912297 -0.808346 4.593304 -0.000000 1.660411 0.000001 5.961052 2.510407 2.013969 0.000000 1.055761 0.136227 10.076138 2.920819 -4.195919 0.274326 1.340696 -0.036009 -8.922318 0.133666 21.662023 0.978870 -0.000000 0.000000 -10.314743 -8.078270 -10.182081 1.919408 0.000001 -0.000000 -9.657726 -1.695324 2.240283 1.783840 0.000001 0.000000 -9.442135 3.943122 -7.214488 -0.270541 1.340694 -0.036009 -4.608531 -6.124481 -18.647683 -0.978871 0.000000 -0.000000 22.925267 19.538342 -5.653790 -1.919409 0.000001 -0.000001 62.989391 48.046764 -102.913226 -1.783838 0.000001 0.000001 5.914195 5.412784 -28.548126 0.681135 0.000000 -0.000000 -36.910373 15.145109 26.226075 -0.000001 -2.864618 -0.000001 35.033659 5.630709 -11.355514 -0.000000 -3.003224 -0.000002 -1.351319 15.239716 -8.185375 0.000000 -0.442738 1.021702 -0.000002 0.000001 -0.000001 -0.681135 -0.000000 0.000000 -28.738687 4.743906 -28.850241 0.000000 -2.864618 -0.000001 41.279887 -12.837393 31.872101 0.000001 -3.003227 -0.000002 -14.071423 -31.463468 -7.693188 -0.000000 -0.442738 1.021702 -0.000003 -0.000011 0.000000 
0.262260 5.565229 -0.313359 11.424818 1.618447 1.069265 0.000000 2.082710 0.000002 -4.945328 -0.735744 4.693518 0.000000 1.660412 0.000001 6.025998 2.525877 1.941547 0.000000 1.055763 0.136229 10.083668 2.930057 -4.205974 0.274324 1.340693 -0.036009 -8.913472 0.159234 21.609592 0.978869 0.000002 -0.000001 -10.319961 -8.063221 -10.215764 1.919408 0.000000 -0.000001 -9.638974 -1.624025 2.193016 1.783838 0.000002 0.000000 -9.422510 3.945379 -7.176262 -0.270541 1.340694 -0.036008 -4.597102 -6.106820 -18.662705 -0.978871 -0.000002 -0.000000 22.778064 19.597030 -5.537241 -1.919408 0.000003 -0.000001 63.361233 48.050019 -103.264797 -1.783838 -0.000000 0.000000 5.992852 5.501348 -28.472709 0.681135 0.000000 -0.000000 -36.966244 15.090649 26.333680 -0.000000 -2.864618 -0.000002 35.294142 5.571198 -11.504976 -0.000001 -3.003226 -0.000002 -1.568463 15.299559 -8.160819 -0.000001 -0.442738 1.021701 0.000001 -0.000011 -0.000002 -0.681135 0.000000 -0.000000 -28.637660 4.783645 -29.033495 -0.000001 -2.864615 -0.000001 41.173026 -12.969324 32.075214 0.000001 -3.003227 -0.000002 -13.262202 -31.232006 -6.945371 -0.000000 -0.442738 1.021702 0.000004 -0.000002 -0.000001 
0.267112 5.561442 -0.312736 11.455478 1.480134 1.104300 0.000000 2.082708 0.000002 -5.001086 -0.653218 4.726585 0.000000 1.660410 0.000001 6.113781 2.525154 1.920271 -0.000000 1.055759 0.136227 10.056526 2.927836 -4.224133 0.274324 1.340691 -0.036009 -8.916005 0.211390 21.634628 0.978870 0.000004 -0.000000 -10.436615 -8.062100 -10.281959 1.919408 0.000001 -0.000000 -9.550326 -1.509174 2.133703 1.783837 -0.000001 -0.000000 -9.328347 3.936815 -7.264786 -0.270541 1.340692 -0.036009 -4.566918 -6.081394 -18.618841 -0.978870 -0.000003 -0.000000 22.647548 19.659834 -5.433206 -1.919408 -0.000000 -0.000000 63.686992 48.028497 -103.603321 -1.783839 -0.000001 0.000002 6.047481 5.505499 -28.492378 0.681135 0.000000 0.000000 -37.009903 14.987015 26.403966 -0.000001 -2.864617 -0.000003 35.566878 5.592830 -11.686833 -0.000001 -3.003226 -0.000002 -1.759194 15.341057 -8.056892 -0.000000 -0.442737 1.021702 -0.000001 -0.000009 -0.000003 -0.681135 -0.000000 -0.000000 -28.644355 4.806728 -29.173295 -0.000000 -2.864618 -0.000001 41.207583 -13.239494 32.146350 0.000001 -3.003226 -0.000002 -12.686671 -30.715272 -6.547786 -0.000000 -0.442738 1.021702 -0.000002 -0.000006 0.000000 
0.271135 5.558078 -0.311316 11.460118 1.362299 1.119176 -0.000000 2.082711 0.000002 -5.021632 -0.608502 4.787275 -0.000000 1.660410 0.000002 6.155803 2.539179 1.897684 0.000000 1.055762 0.136228 10.083263 2.940255 -4.258529 0.274324 1.340692 -0.036009 -8.908595 0.265982 21.598414 0.978870 -0.000000 -0.000000 -10.401899 -8.057698 -10.267743 1.919407 -0.000001 -0.000001 -9.486140 -1.441176 2.076968 1.783837 -0.000000 0.000001 -9.256680 3.978076 -7.347862 -0.270541 1.340690 -0.036009 -4.587091 -6.006622 -18.607114 -0.978871 -0.000001 -0.000000 22.694892 19.668409 -5.372242 -1.919407 -0.000000 0.000001 63.907020 47.996238 -103.950357 -1.783838 0.000002 0.000000 5.982678 5.455278 -28.445894 0.681135 0.000001 0.000000 -37.043254 14.894500 26.484665 -0.000001 -2.864618 -0.000002 35.811676 5.541752 -11.823536 -0.000001 -3.003226 -0.000002 -1.886367 15.394176 -7.960829 -0.000000 -0.442738 1.021702 0.000001 -0.000012 0.000001 -0.681135 0.000001 -0.000000 -28.515319 4.874578 -29.292673 0.000000 -2.864616 -0.000002 41.166974 -13.434279 32.413827 0.000001 -3.003227 -0.000002 -12.592243 -30.831460 -5.748416 0.000000 -0.442738 1.021701 0.000002 -0.000006 -0.000001 
0.275686 5.554721 -0.310390 11.478450 1.268332 1.152080 0.000000 2.082709 0.000001 -5.047932 -0.563937 4.826703 -0.000000 1.660411 0.000002 6.190487 2.547446 1.865451 -0.000000 1.055758 0.136228 10.082550 2.946000 -4.265364 0.274326 1.340693 -0.036009 -8.915640 0.295305 21.591343 0.978870 0.000001 -0.000000 -10.379522 -8.041517 -10.293472 1.919407 0.000002 -0.000000 -9.438295 -1.365689 2.018516 1.783836 0.000000 0.000000 -9.207290 3.951448 -7.382313 -0.270541 1.340693 -0.036009 -4.609429 -5.991146 -18.601740 -0.978870 -0.000002 -0.000000 22.604532 19.727922 -5.302708 -1.919407 -0.000000 -0.000000 64.216517 48.054315 -104.247442 -1.783839 0.000000 -0.000000 5.987539 5.563982 -28.421080 0.681135 -0.000002 -0.000000 -37.073321 14.781101 26.525402 0.000000 -2.864617 -0.000002 36.060913 5.655295 -11.990614 -0.000001 -3.003227 -0.000002 -1.981377 15.314256 -7.771208 0.000000 -0.442738 1.021703 -0.000001 0.000004 0.000001 -0.681135 -0.000002 -0.000000 -28.453581 4.962778 -29.476767 -0.000000 -2.864615 -0.000002 41.056055 -13.312215 32.643018 0.000001 -3.003227 -0.000002 -12.478561 -30.999292 -5.172364 0.000000 -0.442738 1.021702 -0.000001 -0.000007 0.000002 
